<svg xmlns="http://www.w3.org/2000/svg" xmlns:xlink="http://www.w3.org/1999/xlink" width="1080" zoomAndPan="magnify" viewBox="0 0 810 809.999993" height="1080" preserveAspectRatio="xMidYMid meet" version="1.0"><rect x="-81" width="972" fill="#ffffff" y="-80.999999" height="971.999992" fill-opacity="1"/><rect x="-81" width="972" fill="#ffffff" y="-80.999999" height="971.999992" fill-opacity="1"/><path fill="#424242" d="M 811.914062 700.140625 C 811.914062 762.585938 761.316406 813.1875 698.867188 813.1875 L 111.023438 813.1875 C 48.578125 813.1875 -2.023438 762.585938 -2.023438 700.140625 L -2.023438 112.296875 C -2.023438 49.847656 48.578125 -0.75 111.023438 -0.75 L 698.867188 -0.75 C 761.316406 -0.75 811.914062 49.847656 811.914062 112.296875 Z M 811.914062 700.140625 " fill-opacity="1" fill-rule="nonzero"/><path fill="#eceff1" d="M 124.839844 453.289062 C 127.507812 460.390625 131.214844 466.472656 135.941406 471.492188 C 140.667969 476.535156 146.273438 480.398438 152.761719 483.066406 C 159.25 485.734375 166.28125 487.070312 173.902344 487.070312 C 181.316406 487.070312 188.257812 485.691406 194.746094 482.910156 C 201.238281 480.128906 206.890625 476.214844 211.726562 471.175781 C 216.566406 466.132812 220.320312 460.117188 222.988281 453.109375 C 225.65625 446.125 226.988281 438.300781 226.988281 429.640625 L 226.988281 296.335938 L 259.386719 296.335938 L 259.386719 512.390625 L 227.28125 512.390625 L 227.28125 492.335938 C 220.070312 499.957031 211.59375 505.8125 201.824219 509.925781 C 192.058594 514.042969 181.5 516.101562 170.195312 516.101562 C 158.664062 516.101562 147.921875 514.085938 137.929688 510.085938 C 127.960938 506.082031 119.300781 500.363281 111.996094 492.949219 C 104.695312 485.53125 98.929688 476.644531 94.703125 466.246094 C 90.472656 455.84375 88.371094 444.269531 88.371094 431.519531 L 88.371094 296.3125 L 120.769531 296.3125 L 120.769531 429.664062 C 120.816406 438.324219 122.171875 446.191406 124.839844 453.289062 Z M 124.839844 453.289062 " fill-opacity="1" fill-rule="nonzero"/><path fill="#eceff1" d="M 315.277344 296.335938 L 315.277344 375.039062 C 322.492188 367.828125 330.8125 362.128906 340.285156 357.902344 C 349.757812 353.675781 360.042969 351.570312 371.144531 351.570312 C 382.675781 351.570312 393.460938 353.742188 403.546875 358.058594 C 413.628906 362.378906 422.378906 368.257812 429.773438 375.648438 C 437.1875 383.066406 443.042969 391.792969 447.363281 401.878906 C 451.679688 411.960938 453.851562 422.65625 453.851562 433.980469 C 453.851562 445.308594 451.679688 455.957031 447.363281 465.929688 C 443.042969 475.898438 437.164062 484.605469 429.773438 492.019531 C 422.355469 499.4375 413.628906 505.292969 403.546875 509.609375 C 393.460938 513.929688 382.652344 516.097656 371.144531 516.097656 C 360.042969 516.097656 349.691406 513.996094 340.125 509.769531 C 330.5625 505.539062 322.175781 499.84375 314.960938 492.632812 L 314.960938 512.390625 L 284.101562 512.390625 L 284.101562 296.335938 Z M 318.828125 455.304688 C 321.609375 461.882812 325.476562 467.648438 330.402344 472.597656 C 335.332031 477.527344 341.097656 481.4375 347.699219 484.332031 C 354.28125 487.203125 361.378906 488.652344 369 488.652344 C 376.414062 488.652344 383.398438 487.203125 389.980469 484.332031 C 396.558594 481.460938 402.277344 477.550781 407.117188 472.597656 C 411.957031 467.671875 415.820312 461.90625 418.695312 455.304688 C 421.566406 448.722656 423.011719 441.625 423.011719 434.003906 C 423.011719 426.386719 421.566406 419.242188 418.695312 412.546875 C 415.820312 405.855469 411.957031 400.046875 407.117188 395.117188 C 402.277344 390.1875 396.582031 386.320312 389.980469 383.539062 C 383.378906 380.761719 376.390625 379.378906 369 379.378906 C 361.605469 379.378906 354.597656 380.761719 348.015625 383.539062 C 341.4375 386.320312 335.671875 390.1875 330.71875 395.117188 C 325.792969 400.046875 321.878906 405.878906 318.984375 412.546875 C 316.113281 419.242188 314.667969 426.386719 314.667969 434.003906 C 314.667969 441.601562 316.046875 448.699219 318.828125 455.304688 Z M 318.828125 455.304688 " fill-opacity="1" fill-rule="nonzero"/><path fill="#eceff1" d="M 471.464844 402.214844 C 475.578125 392.335938 481.230469 383.652344 488.445312 376.125 C 495.65625 368.617188 504.179688 362.695312 514.058594 358.375 C 523.941406 354.058594 534.632812 351.886719 546.164062 351.886719 C 557.492188 351.886719 567.984375 353.945312 577.660156 358.058594 C 587.335938 362.175781 595.65625 367.894531 602.667969 375.199219 C 609.652344 382.5 615.125 391.136719 619.035156 401.132812 C 622.945312 411.101562 624.890625 421.976562 624.890625 433.6875 L 624.890625 443.886719 L 496.785156 443.886719 C 497.828125 450.261719 499.882812 456.183594 502.957031 461.632812 C 506.054688 467.082031 509.898438 471.832031 514.535156 475.832031 C 519.167969 479.855469 524.414062 482.976562 530.269531 485.238281 C 536.125 487.5 542.367188 488.628906 548.945312 488.628906 C 567.667969 488.628906 582.792969 480.917969 594.324219 465.476562 L 616.863281 482.140625 C 609.042969 492.632812 599.363281 500.859375 587.855469 506.828125 C 576.324219 512.796875 563.371094 515.78125 548.96875 515.78125 C 537.234375 515.78125 526.292969 513.726562 516.09375 509.609375 C 505.898438 505.496094 497.058594 499.730469 489.550781 492.316406 C 482.046875 484.898438 476.121094 476.214844 471.804688 466.222656 C 467.484375 456.253906 465.3125 445.378906 465.3125 433.664062 C 465.292969 422.585938 467.347656 412.074219 471.464844 402.214844 Z M 514.828125 390.007812 C 506.078125 397.308594 500.269531 407.03125 497.398438 419.171875 L 593.394531 419.171875 C 590.726562 407.03125 585.007812 397.308594 576.257812 390.007812 C 567.507812 382.703125 557.265625 379.042969 545.554688 379.042969 C 533.820312 379.0625 523.578125 382.703125 514.828125 390.007812 Z M 514.828125 390.007812 " fill-opacity="1" fill-rule="nonzero"/><path fill="#eceff1" d="M 683.199219 393.558594 C 676.621094 400.769531 673.320312 410.535156 673.320312 422.882812 L 673.320312 512.390625 L 642.140625 512.390625 L 642.140625 354.960938 L 673.003906 354.960938 L 673.003906 374.40625 C 676.914062 368.03125 682.003906 362.988281 688.289062 359.28125 C 694.574219 355.574219 702.035156 353.71875 710.671875 353.71875 L 721.476562 353.71875 L 721.476562 382.726562 L 708.523438 382.726562 C 698.234375 382.75 689.78125 386.367188 683.199219 393.558594 Z M 683.199219 393.558594 " fill-opacity="1" fill-rule="nonzero"/></svg>